<?xml version="1.0" standalone="no"?>
<!DOCTYPE svg PUBLIC "-//W3C//DTD SVG 20010904//EN"
 "http://www.w3.org/TR/2001/REC-SVG-20010904/DTD/svg10.dtd">
<svg version="1.0" xmlns="http://www.w3.org/2000/svg"
 width="427.000000pt" height="427.000000pt" viewBox="0 0 427.000000 427.000000"
 preserveAspectRatio="xMidYMid meet">
<metadata>
Created by potrace 1.11, written by Peter Selinger 2001-2013
</metadata>
<g transform="translate(0.000000,427.000000) scale(0.100000,-0.100000)"
fill="#000000" stroke="none">
<path d="M1968 4266 c-1 -2 -30 -6 -63 -9 -51 -5 -185 -27 -250 -41 -196 -42
-443 -143 -635 -260 -258 -158 -489 -380 -661 -636 -68 -102 -209 -370 -209
-399 0 -9 -4 -21 -9 -26 -21 -22 -85 -260 -116 -430 -20 -112 -27 -421 -12
-561 23 -214 93 -467 187 -668 59 -127 182 -328 255 -415 228 -276 446 -451
738 -595 142 -70 366 -150 482 -172 11 -2 31 -6 45 -9 233 -46 527 -50 770
-10 115 19 386 94 415 114 6 4 33 16 60 26 77 28 229 110 339 183 466 307 795
787 912 1327 43 198 56 404 41 615 -10 128 -11 135 -43 300 -17 84 -44 173
-111 355 -24 65 -121 250 -175 332 -177 271 -430 519 -686 670 -124 74 -143
84 -237 125 -153 68 -305 116 -465 148 -53 11 -69 13 -155 26 -43 6 -411 15
-417 10z"/>
</g>
</svg>
